<?xml version="1.0" encoding="UTF-8"?><svg id="uuid-ba7f48a8-feda-473b-af16-23780c8bc6d3" xmlns="http://www.w3.org/2000/svg" viewBox="0 0 531.35 95.6"><rect x="119.05" y="27.32" width="22.08" height="66.59" style="fill:#023444;"/><rect x="238.12" y="27.32" width="22.08" height="66.59" style="fill:#023444;"/><path d="m215.84,32.58c-4.25-5.28-10.82-7.78-18.55-7.55-10.04-.03-20.31,3.42-22.36,13.78v-11.61h-17.4v66.7h21.99v-38.55c-.08-6.26,4.09-10.83,10.4-10.75,6.22-.11,10.2,4.48,10.15,10.51v38.79h21.99v-38.19c0-10.39-2.07-18.1-6.22-23.13" style="fill:#023444;"/><path d="m448.32,38.22c-10.64-16.21-34.68-11.76-51.74-11.13v18.35c5.61-.31,12.83-.68,18.56-.83,8.14-.28,15.94-1.16,15.84,8.69-12.72-.02-29.06-1-37.73,8.98-7.81,9.19-3.92,26.32,7.61,30.8,4.53,2.01,9.5,2.84,14.43,2.41,7.94-.31,15.85-2.23,19.24-9.3v7.75h17.53v-40.39c.11-6.21-1.18-11.31-3.74-15.33m-34.75,28.65c1.62-1.47,3.91-2.23,6.93-2.23h10.56v4.71c-.27,4.85-1.51,8.6-5.39,10.55-3.62,1.68-9.47,1.37-12.1-1.18-3.3-2.76-3.18-9.1,0-11.85" style="fill:#023444;"/><path d="m359.36,93.91v-38.63c.02-5.87-3.32-10.88-9.58-10.77-6.33-.07-9.85,4.92-9.8,11.03v38.37h-22.05v-38.63c.02-5.87-3.32-10.88-9.59-10.77-6.33-.07-9.85,4.92-9.8,11.03v38.37h-22.05V27.07h17.44l.04,11.78c2.53-10.29,12.37-14.37,22.7-13.94,9.94,0,16.62,4.54,20.18,13.76l.07.18.07-.18c3.47-9.15,10.34-13.78,20.14-13.76,5.15-.14,10.04.98,13.62,3.46,8.54,6.14,10.43,16.09,10.59,27.56v38.02h-21.98v-.04Z" style="fill:#023444;"/><path d="m82.88,55.28v5.59h21.98v-4.94c-.17-11.47-2.05-21.42-10.59-27.56-3.58-2.48-8.47-3.6-13.62-3.46-9.8-.01-16.67,4.62-20.14,13.76l-.07.18-.07-.18c-3.55-9.23-10.24-13.76-20.18-13.76-10.33-.42-20.17,3.66-22.7,13.94l-.04-11.78H0v66.84h22.06v-38.37c-.05-6.11,3.47-11.1,9.8-11.03,6.26-.1,9.6,4.91,9.59,10.77v38.63h22.05v-38.37c-.05-6.11,3.47-11.1,9.8-11.03,6.26-.1,9.59,4.91,9.58,10.77Z" style="fill:#023444;"/><rect x="82.69" y="71.9" width="22.05" height="22.05" style="fill:#017eb4;"/><polygon points="510.84 59.87 527.71 27.35 505.39 27.35 494.21 50.99 482.46 27.35 458.68 27.35 476.74 60 458.07 93.93 480.39 93.93 493.52 68.85 507.57 93.93 531.35 93.93 510.84 59.87" style="fill:#023444;"/><path d="m128.85,0h2.75c5.78,0,10.46,4.68,10.46,10.46v1.15c0,5.78-4.68,10.46-10.46,10.46h-2.75c-5.78,0-10.46-4.68-10.46-10.46v-1.15c0-5.77,4.68-10.46,10.46-10.46Z" style="fill:#023444;"/><path d="m247.71,0h2.75c5.78,0,10.46,4.68,10.46,10.46v1.15c0,5.78-4.68,10.46-10.46,10.46h-2.75c-5.78,0-10.46-4.68-10.46-10.46v-1.15c0-5.77,4.69-10.46,10.46-10.46Z" style="fill:#023444;"/></svg>